:SAMPLES-PER-SECOND 30
:FULLY-SPECIFIED
:DEGREES
80
root  35.00691511 36.55393105 -14.4656294 10.66340923 2.58213377 2.820266962
lowerback  -7.994920254 1.57573998 1.512200713
upperback  -4.053709984 1.638399959 -3.561049938
thorax  0.4358769953 0.5988630056 -4.40279007
lowerneck  -14.51179981 2.816819906 2.763020039
upperneck  10.98919964 2.386430025 4.879199982
head  5.680990219 1.598170042 1.30637002
lclavicle  0 -4.497500157e-015 -2.743230041e-014
lhumerus  -44.76599884 27.13780022 68.31829834
lradius  -0.4893206954 -6.507048965e-006 27.59530067
lwrist  4.824992743e-007 -3.790274832e-007 -31.02319908
lhand  -3.517220446e-031 -36.97650146 -10.65530014
lfingers  90 7.125020027 -90
lthumb  94.84770966 -25.48881149 101.1490479
rclavicle  0 -4.497500157e-015 -2.743230041e-014
rhumerus  15.58789825 8.40557003 -67.15280151
rradius  -5.16745672e-007 2.214343908e-008 90.75299835
rwrist  1.129822067e-006 0.001802438172 -176.701004
rhand  -3.013983967e-031 3.10255003 -7.731339931
rfingers  -90 -7.125020027 -90
rthumb  -85.46040344 -8.273855209 -61.1129837
rfemur  -12.46106339 14.08154297 13.78243923
rtibia  -0.4715194404 1.025739908 19.69545746
rfoot  -0.1640553176 -18.28951263 -40.22653961
rtoes  4.173678398 19.56789398 -102.286171
lfemur  -10.00573826 -17.43759727 -18.48816872
ltibia  2.821890116 1.814166784 14.25514889
lfoot  0.3482179642 -28.47294235 32.43709946
ltoes  -8.55440712 -18.14632034 -115.7796631
81
root  35.00623928 36.55393105 -14.46486646 10.68789768 2.692343473 2.808455706
lowerback  -7.964570045 1.63906002 1.575209856
upperback  -4.05948019 1.717640042 -3.628700018
thorax  0.4238069952 0.6362490058 -4.503129959
lowerneck  -14.48079967 2.733180046 2.718130112
upperneck  10.87269974 2.277050257 4.958270073
head  5.639150143 1.545230031 1.326539993
lclavicle  0 -4.497500157e-015 -2.743230041e-014
lhumerus  -44.7071991 27.01679993 68.34290314
lradius  -0.4894567728 -6.507048965e-006 27.62140274
lwrist  4.824992743e-007 -3.790274832e-007 -30.98150063
lhand  -3.520770081e-031 -36.94029999 -10.61769962
lfingers  90 7.125020027 -90
lthumb  94.82269287 -25.45320129 101.1068039
rclavicle  0 -4.497500157e-015 -2.743230041e-014
rhumerus  17.21099854 8.059599876 -66.73840332
rradius  -5.16745672e-007 2.214343908e-008 90.43450165
rwrist  1.129822067e-006 0.001802438172 -176.9369965
rhand  -3.047754436e-031 3.298160076 -7.226560116
rfingers  -90 -7.125020027 -90
rthumb  -85.1696167 -8.727737427 -60.88576889
rfemur  -12.46736908 14.03624058 13.81896496
rtibia  -0.4764563441 1.058477402 19.68478775
rfoot  -0.1591091007 -18.22132874 -40.26212311
rtoes  4.17502594 19.56788445 -102.2901917
lfemur  -10.09909916 -17.46543884 -18.42399597
ltibia  2.788727999 1.834952712 14.34779835
lfoot  0.3599486947 -28.54669189 32.37385941
ltoes  -8.545493126 -18.1504097 -115.7510452
82
root  35.00279404 36.55383793 -14.46414557 10.7126112 2.851965904 2.817943096
lowerback  -7.907690048 1.72597003 1.612729907
upperback  -4.041309834 1.831130028 -3.762150049
thorax  0.426571995 0.6910300255 -4.655280113
lowerneck  -14.60599995 2.640949965 2.971790075
upperneck  10.80340004 2.097790003 4.916540146
head  5.644849777 1.463160038 1.257660031
lclavicle  0 -4.497500157e-015 -2.743230041e-014
lhumerus  -44.44269943 26.76409912 68.35870361
lradius  -0.489585191 -6.507048965e-006 27.57540131
lwrist  4.824992743e-007 -3.790274832e-007 -31.04210281
lhand  -3.520124773e-031 -36.95069885 -10.6239996
lfingers  90 7.125020027 -90
lthumb  94.82894135 -25.45902252 101.118576
rclavicle  0 -4.497500157e-015 -2.743230041e-014
rhumerus  18.91839981 7.739560127 -66.22720337
rradius  -5.16745672e-007 2.214343908e-008 89.96209717
rwrist  1.129822067e-006 0.001802438172 -176.6660004
rhand  -3.038549489e-031 3.732569933 -7.360239983
rfingers  -90 -7.125020027 -90
rthumb  -85.13742828 -8.63818264 -60.47213364
rfemur  -12.49480343 13.93792343 13.85591793
rtibia  -0.4998802841 1.090563893 19.73769569
rfoot  -0.1745905131 -18.16856194 -40.27272415
rtoes  4.164349556 19.56793022 -102.2583313
lfemur  -10.1190691 -17.50475311 -18.41230583
ltibia  2.819645405 1.864090323 14.32295322
lfoot  0.3582223952 -28.58431053 32.28032684
ltoes  -8.529376984 -18.15778732 -115.6993179
83
root  35.00058632 36.55365771 -14.46340366 10.74673843 2.981076002 2.853144646
lowerback  -7.938380241 1.741920114 1.688070774
upperback  -4.082359791 1.843549967 -3.749259949
thorax  0.4040789902 0.6942700148 -4.683499813
lowerneck  -14.41520023 2.614789963 2.881690025
upperneck  10.74740028 2.093039751 4.932600021
head  5.593999863 1.455219984 1.27294004
lclavicle  0 -4.497500157e-015 -2.743230041e-014
lhumerus  -44.55450058 26.88809967 68.25610352
lradius  -0.4897063971 -6.507048965e-006 27.52050018
lwrist  4.824992743e-007 -3.790274832e-007 -31.03129959
lhand  -3.520283685e-031 -36.96620178 -10.61989975
lfingers  90 7.125020027 -90
lthumb  94.83532715 -25.454422 101.134819
rclavicle  0 -4.497500157e-015 -2.743230041e-014
rhumerus  20.37169838 7.873449326 -65.47779846
rradius  -5.16745672e-007 2.214343908e-008 89.80069733
rwrist  1.129822067e-006 0.001802438172 -176.6069946
rhand  -3.050857046e-031 3.738430023 -7.176939964
rfingers  -90 -7.125020027 -90
rthumb  -85.04466248 -8.79805851 -60.45265579
rfemur  -12.57666588 13.87179184 13.85951138
rtibia  -0.5447456241 1.119625807 19.86419487
rfoot  -0.2292301804 -18.11994171 -40.30785751
rtoes  4.162008286 19.56802368 -102.2513428
lfemur  -10.11876106 -17.57196808 -18.44563484
ltibia  2.878886938 1.886953712 14.24473
lfoot  0.3661191463 -28.58748245 32.24684143
ltoes  -8.525744438 -18.15944862 -115.6876678
84
root  34.99616187 36.55337536 -14.46293658 10.76306152 3.14806056 2.885874748
lowerback  -7.953850269 1.738530159 1.731380224
upperback  -4.098609924 1.836519957 -3.710829973
thorax  0.3952820003 0.6906790137 -4.668379784
lowerneck  -14.39080048 2.571019888 2.754950047
upperneck  10.74880028 2.067070007 4.920790195
head  5.588850021 1.437719941 1.286960006
lclavicle  0 -4.497500157e-015 -2.743230041e-014
lhumerus  -44.52959824 27.01749992 68.22129822
lradius  -0.4898207486 -6.507048965e-006 27.40519905
lwrist  4.824992743e-007 -3.790274832e-007 -30.97879982
lhand  -3.518412566e-031 -36.95640182 -10.64379978
lfingers  90 7.125020027 -90
lthumb  94.83582306 -25.47818375 101.1264801
rclavicle  0 -4.497500157e-015 -2.743230041e-014
rhumerus  22.00230217 7.853619576 -64.69789886
rradius  -5.16745672e-007 2.214343908e-008 89.44499969
rwrist  1.129822067e-006 0.001802438172 -176.8639984
rhand  -3.065929775e-031 3.905169964 -6.95126009
rfingers  -90 -7.125020027 -90
rthumb  -84.89297485 -9.004335403 -60.27241135
rfemur  -12.59606361 13.82520199 13.86707878
rtibia  -0.5750221014 1.141846418 19.93342781
rfoot  -0.2826105952 -18.0820446 -40.41603088
rtoes  4.157502651 19.56816292 -102.2378998
lfemur  -10.05194473 -17.62340736 -18.49541855
ltibia  2.978833914 1.929324389 14.10458088
lfoot  0.388810575 -28.60879326 32.2135849
ltoes  -8.513708115 -18.1649456 -115.6490479
85
root  34.99038576 36.55298789 -14.46304471 10.76405621 3.311586142 2.900881529
lowerback  -7.96530056 1.784659982 1.783920288
upperback  -4.107490063 1.894690037 -3.719850063
thorax  0.399792999 0.7191230059 -4.702549934
lowerneck  -14.41800022 2.491709948 2.631330013
upperneck  10.73110008 1.976089954 4.990190029
head  5.586800098 1.393550038 1.320819974
lclavicle  0 -4.497500157e-015 -2.743230041e-014
lhumerus  -44.51539993 27.05019951 68.28029633
lradius  -0.4899286926 -6.507048965e-006 27.39929771
lwrist  4.824992743e-007 -3.790274832e-007 -31.00309944
lhand  -3.516438191e-031 -36.95259857 -10.66810036
lfingers  90 7.125020027 -90
lthumb  94.83921814 -25.50214386 101.1246185
rclavicle  0 -4.497500157e-015 -2.743230041e-014
rhumerus  23.66980171 7.602609158 -64.1568985
rradius  -5.16745672e-007 2.214343908e-008 88.86340332
rwrist  1.129822067e-006 0.001802438172 -177.2510071
rhand  -3.047898801e-031 4.234549999 -7.216599941
rfingers  -90 -7.125020027 -90
rthumb  -84.9497757 -8.794501305 -59.97179794
rfemur  -12.57055759 13.72956944 13.90278339
rtibia  -0.593855381 1.159209251 19.9451046
rfoot  -0.2994989157 -18.04534912 -40.4750061
rtoes  4.162433624 19.56834793 -102.2526169
lfemur  -10.02759266 -17.67243767 -18.50269699
ltibia  3.032470942 1.966321826 14.05738544
lfoot  0.4091053009 -28.6667099 32.15083313
ltoes  -8.543223381 -18.1514492 -115.7437592
86
root  34.98844537 36.55248927 -14.4644925 10.77038193 3.478715658 2.921847105
lowerback  -7.938650608 1.888790011 1.815480471
upperback  -4.111040115 2.030070066 -3.817670107
thorax  0.3986090124 0.7845559716 -4.811850071
lowerneck  -14.54629993 2.378000021 2.744800091
upperneck  10.74629974 1.784029961 5.017380238
head  5.617199898 1.306740046 1.296079993
lclavicle  0 -4.497500157e-015 -2.743230041e-014
lhumerus  -44.38790131 26.93829918 68.30200195
lradius  -0.4900306463 -6.507048965e-006 27.35600281
lwrist  4.824992743e-007 -3.790274832e-007 -31.12070084
lhand  -3.516614401e-031 -36.91149902 -10.67179966
lfingers  90 7.125020027 -90
lthumb  94.82076263 -25.50724602 101.0810318
rclavicle  0 -4.497500157e-015 -2.743230041e-014
rhumerus  25.08869934 7.117909431 -63.68529892
rradius  -5.16745672e-007 2.214343908e-008 88.44599915
rwrist  1.129822067e-006 0.001802438172 -177.1970062
rhand  -3.061733357e-031 3.510220051 -7.016839981
rfingers  -90 -7.125020027 -90
rthumb  -85.0175705 -8.92360878 -60.6629715
rfemur  -12.54808617 13.68647957 13.92387581
rtibia  -0.6193407774 1.170062184 19.94630814
rfoot  -0.318913132 -17.99448967 -40.58441925
rtoes  4.136178493 19.56857109 -102.1742783
lfemur  -10.04692268 -17.77505493 -18.50740242
ltibia  3.058017492 1.967869759 14.07218266
lfoot  0.4271381199 -28.67879677 32.10066223
ltoes  -8.57540226 -18.13667107 -115.8470917
